<?xml version="1.0" encoding="utf-8"?>
<!-- Generator: Adobe Illustrator 24.1.2, SVG Export Plug-In . SVG Version: 6.00 Build 0)  -->
<svg version="1.1" id="Layer_1" xmlns="http://www.w3.org/2000/svg" xmlns:xlink="http://www.w3.org/1999/xlink" x="0px" y="0px"
	 viewBox="0 0 338.4 338.4" style="enable-background:new 0 0 338.4 338.4;" xml:space="preserve">
<style type="text/css">
	.st0{fill:#FF0000;}
</style>
<g>
	<g>
		<path class="st0" d="M169.2,338.4c93.6,0,169.2-75.5,169.2-169.2S262.9,0,169.2,0S0,75.5,0,169.2S75.6,338.4,169.2,338.4z
			 M169.2,22.7c81.2,0,146.6,65.4,146.6,146.6s-65.4,146.5-146.6,146.5S22.7,250.4,22.7,169.2S88,22.7,169.2,22.7z"/>
	</g>
</g>
<g>
	<g>
		<path class="st0" d="M107.2,176l74.4,74.4c4.5,4.5,11.3,4.5,15.8,0s4.5-11.3,0-15.8L132,169.2l65.4-65.3c4.5-4.5,4.5-11.3,0-15.8
			c-2.2-2.2-4.5-3.4-7.9-3.4c-2.2,0-5.7,1.1-9,2.2l-73.3,73.3c-2.2,2.2-3.4,4.5-3.4,7.9C103.9,171.5,105,173.8,107.2,176z"/>
	</g>
</g>
</svg>
