<?xml version="1.0" encoding="utf-8"?>
<!-- Generator: Adobe Illustrator 24.1.2, SVG Export Plug-In . SVG Version: 6.00 Build 0)  -->
<svg version="1.1" id="Laag_1" xmlns="http://www.w3.org/2000/svg" xmlns:xlink="http://www.w3.org/1999/xlink" x="0px" y="0px"
	 viewBox="0 0 512 512" style="enable-background:new 0 0 512 512;" xml:space="preserve">
<style type="text/css">
	.st0{fill:#FFFFFF;}
</style>
<path class="st0" d="M256,512C114.8,512,0,397.2,0,256S114.8,0,256,0s256,114.8,256,256S397.2,512,256,512z M256,36.6
	C135,36.6,36.6,135,36.6,256S135,475.4,256,475.4S475.4,377,475.4,256S377,36.6,256,36.6z"/>
<g>
	<path class="st0" d="M256,341.4c17.6,0,32.3-9.8,33.9-22.6l22.9-199.3c1.3-11.6-4.1-23-14.8-31.6c-10.7-8.5-26-13.4-42-13.4
		s-31.1,4.9-42,13.4c-10.7,8.5-16.2,20-14.8,31.6l22.9,199.3C223.7,331.5,238.4,341.4,256,341.4z"/>
	<path class="st0" d="M256,356.5c-22.3,0-40.5,18.1-40.5,40.5c0,22.3,18.1,40.4,40.5,40.4c22.3,0,40.5-18.1,40.5-40.4
		C296.6,374.6,278.3,356.5,256,356.5z"/>
</g>
</svg>
